<svg xmlns="http://www.w3.org/2000/svg" width="700" height="608"><path fill="#ae7523" d="M368.14 557.54c-11.5 1.54-36.06 1.72-48.14.36-37.55-4.22-60.92-15.23-83.9-39.52-12.47-13.17-17.93-20.72-24.41-33.78-9.82-19.76-15.32-39.24-18.13-64.18-2.07-18.38-2.57-29.35-3.57-78.42-.84-41.44-2.31-66.5-4.01-68.35-1.62-1.76-8.14 1.73-9.99 5.36-5.72 11.22-20.99 18.46-33.81 16.02-17.84-3.38-32.91-19.04-37.64-39.12-2.15-9.1-1.97-23.91.39-33.14 1.89-7.41 6.43-17.59 10.24-22.99 1.05-1.49 2.62-5.09 3.49-8 8.74-29.45 36.05-49.7 67.14-49.76 24.09-.05 44.67 11.42 59.05 32.92 3.25 4.85 6.1 9.4 6.33 10.11.32.94 2.37.39 7.63-2.03 3.95-1.82 7.19-3.68 7.19-4.12s-1.69-3.47-3.75-6.73l-3.75-5.93-7.57-.37c-8.92-.44-14.17-3.26-18.65-10.02-3.73-5.64-4.43-15.7-1.48-21.44 2.36-4.58 6.35-8.5 11.1-10.9 5.46-2.76 16.63-1.8 21.94 1.88 8.82 6.11 11.83 19.01 6.73 28.83l-2.54 4.9 4.57 6.93c2.52 3.82 4.93 7.16 5.36 7.42.42.27 5.81-1.87 11.96-4.74 8.15-3.81 11.07-5.65 10.78-6.77-.22-.85-5.48-9.63-11.69-19.5-18.26-29.06-20.04-32.13-22.47-32.77-.45-.12-.93-.16-1.54-.26-9.93-1.69-15.11-6.21-16.49-14.37-.97-5.75 2.47-13.12 7.43-15.91 8.45-4.74 20.34-1.52 23.65 6.42 1.8 4.31 1.8 10.77 0 14.25-1.37 2.65-.98 3.41 15.08 29.2 9.07 14.57 17.02 27.01 17.66 27.66.9.91 4.25-.23 14.4-4.87l13.23-6.05-4.13-5.88-4.12-5.88h-6.39c-7.78 0-12.64-2.22-17.63-8.05-8.63-10.08-6.54-25.1 4.5-32.49 3.4-2.27 5.71-2.96 10.97-3.28 8.22-.49 12.36.81 17.04 5.36 6.92 6.72 8.63 17.4 4.2 26.29l-2.6 5.22 4.22 6.47c4.37 6.72 5.7 7.39 9.95 5.04 2.13-1.17 2.7-2.69 4.16-10.98 1.8-10.16 5.5-19.33 10.73-26.55 1.73-2.38 3.14-5.08 3.14-6.01 0-2.69 4.87-13.91 8.5-19.59 8.67-13.55 23.62-23.89 40.5-28.02 7.44-1.81 24.97-1.74 32.95.14 3.55.84 9.63 3.14 13.5 5.11 21.56 10.96 36.05 30.71 39.61 53.94 1.05 6.84.98 9.11-.5 16.42-3.91 19.34-16.13 32.28-33.97 35.97-4.67.96-7.13.96-11.77-.03-3.23-.68-6.13-.98-6.46-.65-1.45 1.44 10.16 16.38 28.59 36.76 22.96 25.4 37.82 43.45 47.67 57.93 25.61 37.64 38.34 70.05 41.37 105.31 1.52 17.75-.39 34.25-5.96 51.43-5.49 16.94-16.17 34.78-29.13 48.66-10.43 11.17-42.41 39.76-54.07 48.34-39.27 28.9-77.64 45.61-116.69 50.8m-21.64-29.17c10.7.89 35.2-.33 46-2.3 47.94-8.75 95.33-33.87 131.11-69.51 17.82-17.75 26.96-31.85 33.33-51.41 4.14-12.72 5.53-22.08 5.43-36.65-.14-20.23-4.24-39.52-12.9-60.68-11.6-28.33-26.05-50.22-55.65-84.28-44.77-51.51-49.58-58.75-60.49-91.04-5.18-15.33-5.75-17.84-5.78-25.5-.02-7.01.38-9.27 2.3-12.88 10.01-18.87 37.87-18.69 49.63.34 3.99 6.46 4.31 15.97.72 21.74-4.63 7.44-15.2 10.97-20.45 6.82-4.72-3.72-2.54-10.02 3.47-10.02 4.38 0 6.62-1.65 7.33-5.41.75-4.03-.62-7.05-4.92-10.85-3.41-3.01-8.27-4.73-13.43-4.73-10.61-.02-16 11.67-11.3 24.49 1.01 2.75 3.03 8.36 4.48 12.47 5.27 14.86 16.65 21.46 30.24 17.56 8.22-2.36 17.1-11.32 19.87-20.03 3.67-11.54 1.56-27.15-5.22-38.71-7.41-12.61-21.38-23.95-34.24-27.78-8.28-2.47-22.92-2.69-31.57-.49-19.98 5.09-34.53 19.95-39.6 40.48-1.85 7.5-1.6 26.81.45 34.69 5.41 20.71 17.26 40.99 39.06 66.81 35.41 41.94 46.64 58.34 55.75 81.5 21.67 55.05 17.1 90.41-15.98 123.72-11.71 11.79-22.3 19.35-37.61 26.88-38.31 18.83-76.96 17.07-111.53-5.09-9.85-6.32-27.96-24.62-35.13-35.51-14.96-22.71-24.91-50.14-28.83-79.54-1.92-14.31-2.82-44.45-1.96-64.96.96-22.8.12-33.03-3.68-44.92-8.14-25.41-24.47-42.59-45.7-48.08-7.48-1.93-20.67-1.92-28.17.03-22.49 5.86-39.18 24.29-43.68 48.23-1.46 7.78-.46 24.4 1.89 31.34 4.08 12.08 12.04 21.68 22.02 26.58 4.93 2.42 6.94 2.82 14.24 2.82 7.61 0 9.07-.32 14-3.06 4.79-2.66 5.95-3.95 9-9.98 3.49-6.9 3.5-6.95 3.5-20.61 0-13.22-.09-13.78-2.5-16.37-11.06-11.84-31-6.51-31 8.29 0 3.85.53 5 3.88 8.35 3 3 4.66 3.88 7.31 3.88 4.17 0 6.49 1.63 7.34 5.16.8 3.32-2.34 6.84-6.09 6.84-8.86 0-18.37-6.1-22.36-14.33-6.34-13.1 1.6-30.42 16.19-35.26 6.69-2.22 17.65-1.54 23.53 1.48 12.23 6.27 16.07 13.23 19.6 35.61 4.57 28.88 5.08 36.95 6.65 106 .55 24.38 1.57 47.04 2.42 54 5.35 43.88 19.17 74.51 44.66 98.98 16.18 15.53 28.27 22.89 45.87 27.94 8.53 2.44 29.15 6.16 38.5 6.95m23.72-94.6c1.39 1.68 12.48 1.07 23.84-1.29 7.27-1.52 25.74-7.88 27.24-9.38.94-.94-8.34-17.88-48.82-89.1-8.91-15.67-22.19-39.08-29.53-52-20.3-35.8-26.87-47.25-27.38-47.76-.38-.38-37.3 17.19-38.43 18.3-.37.35 5.3 11.5 52.62 103.46 14.57 28.33 29.37 57.08 32.88 63.91s6.92 13.06 7.58 13.86m50.64-38.55c6.4 11.4 12.03 20.74 12.51 20.75 3.12.1 27.94-21.22 29.16-25.05.65-2.06-9.61-19.31-41.01-68.92-2.26-3.58-6.71-10.77-9.88-16-3.18-5.23-8.3-13.55-11.38-18.5-3.09-4.95-14.13-22.73-24.54-39.5-10.42-16.77-19.45-31.03-20.08-31.69-1.58-1.63-28.2 10.7-28.01 12.99.07.85 11.05 20.82 24.41 44.38 13.35 23.55 31.69 55.87 40.73 71.82 9.05 15.95 21.69 38.32 28.09 49.72M261.43 245.89c.37.59 12.94-5.14 30.35-13.84 30.39-15.18 62.47-30.35 88.14-41.69 7.93-3.5 14.61-6.56 14.84-6.79s-1.36-3.04-3.53-6.24c-4.68-6.89-10-17.34-13.33-26.19-1.32-3.5-2.94-6.58-3.6-6.84s-5.84 1.64-11.5 4.23L335.5 161c-18.8 8.58-37.48 17.16-62.62 28.73l-16.62 7.66 1.8 6.55c2.74 9.97 4.22 24.22 3.44 33.08-.38 4.32-.42 8.31-.07 8.87m85.29 184.62c4.84 1.33 8.28 1.79 8.28 1.12 0-.34-35.71-70.01-64.13-125.13-6.53-12.65-14.68-28.51-18.11-35.25-3.44-6.74-6.73-12.25-7.32-12.25-.58 0-1.86.59-2.85 1.31-1.59 1.16-1.77 2.96-1.66 16.25.33 39.73 6.18 67.08 20.28 94.76 7.33 14.4 14.9 24.74 25.46 34.78 12.45 11.84 27.34 20.91 40.05 24.41M193.23 538.25c-2.16 2.45-7.67 2.26-10.1-.34-1.08-1.16-2.94-6.18-4.18-11.25-1.22-5.04-2.5-9.68-2.84-10.32-.4-.76-5.06 1.38-13.61 6.25-7.15 4.07-14.15 7.41-15.56 7.41-3.73 0-6.94-3.42-6.94-7.41 0-1.83.89-5.52 1.97-8.21 3.37-8.37 12.03-32.34 12.03-33.31 0-.51-9.32 2.19-20.72 6-12.67 4.24-21.5 6.69-22.75 6.31-3.68-1.12-5.53-3.55-5.53-7.28 0-3.34 1.54-5.13 22.7-26.3 12.49-12.5 22.45-22.98 22.14-23.29s-9.51-4.42-20.45-9.13-20.9-9.5-22.14-10.64c-3.11-2.89-3.03-7.98.17-10.5 1.99-1.56 5.43-2.12 19.25-3.11l.05-.01c32.63-2.34 40.08-2.88 41.78-.01.5.85.5 1.99.5 3.48v.01c0 4.91-3.02 6.04-18.5 6.92-17.48 1-18.63 1.51-11 4.94 3.3 1.49 9.95 4.29 14.77 6.23 9.33 3.76 11.73 5.96 11.73 10.72 0 2.5-2.74 5.72-17.6 20.66-9.67 9.73-17.21 17.92-16.75 18.19.47.27 6.7-1.47 13.85-3.88 7.25-2.44 14.89-4.37 17.27-4.38 3.87 0 4.41.31 5.9 3.43 1.63 3.42 1.61 3.49-5.11 21.41-3.71 9.88-6.59 18.65-6.4 19.47.26 1.14 2.51.21 9.34-3.87 9.78-5.84 14.88-6.9 17.76-3.69.86.96 2.32 4.67 3.23 8.25.92 3.58 2.01 6.86 2.44 7.3.42.44 2.47-2.49 4.56-6.5 4.95-9.53 6.13-10.8 10.13-10.8 3.4 0 5.38 2.05 5.38 5.58 0 1.87-14.29 28.85-16.77 31.67m267.08-176.9c7.33 11.67 8.15 12.64 8.96 10.5 2.82-7.39-4.24-41.73-12.89-62.75-9-21.89-20.09-38.39-48.43-72.1-10.1-12.01-24.23-29.9-25.71-32.53-.73-1.32-1.86-1.08-8.12 1.68-5.32 2.35-7.15 3.64-6.84 4.81.23.87 5.59 9.91 11.91 20.07 6.33 10.16 20.19 32.42 30.81 49.47s24.47 39.33 30.78 49.5c6.3 10.17 15.09 24.28 19.53 31.35m95.38-133.39c-5.98 2.08-11.37.71-17.49-4.44-4.53-3.82-7.51-10.15-10.59-22.52-5.45-21.85-4.17-24.06 18-30.89 17.4-5.36 20.01-4.43 23.96 8.52 1.43 4.69 3.26 10.12 4.07 12.06 1.38 3.28 1.59 3.41 3.25 1.91 2.6-2.35 6.27-1.96 10.93 1.17 8.82 5.92 11.83 13.71 8.35 21.58-4.98 11.25-20.44 10.57-26.92-1.19-1.11-2.01-4.18-10.64-6.82-19.16-2.65-8.52-4.91-15.65-5.04-15.84-.59-.86-20.39 6.41-20.39 7.48 0 3.87 4.58 20.51 6.64 24.09 2.49 4.36 5.66 6.82 7.38 5.76 1.69-1.05 1.08-2.01-2-3.18-4.21-1.58-5.81-5.45-3.64-8.77 1.38-2.11 2.44-2.54 6.26-2.54 4.03 0 5.09.49 8.6 4.01 3.84 3.84 3.99 4.22 3.57 9.29-.52 6.21-3.65 11.1-8.12 12.66m8.51-121.48c-4.29 2.85-11.42 4.06-16.92 2.87-3.2-.69-10.12-8.97-10.87-13-2.61-13.89 3.77-24.33 14.89-24.34 2.64-.01 6.07.65 7.61 1.45 2.89 1.49 6.09 6.87 6.09 10.22 0 3.23-2.89 6.32-5.9 6.32-2.79 0-6.1-2.62-6.1-4.83 0-1.52-2.27-1.5-3.8.03-1.7 1.7-1.49 7.94.36 10.58 2.09 2.99 4.22 2.8 9.78-.88 5.72-3.79 22.16-21.08 24.66-25.94l1.82-3.53-6.33-3.28C573.7 59.14 563 49.44 563 47.19c0-1.94 4.24-6.19 6.18-6.19 1.11 0 4.23 1.98 6.93 4.41 2.69 2.42 7.88 5.9 11.53 7.73 3.64 1.84 7.35 4.45 8.24 5.8 2.63 4.01 1.9 10.17-1.97 16.67-3.83 6.44-23.14 26.49-29.71 30.87m-245.43 13.55c2.71 2.13 8.2 2.59 11.29.94 2.54-1.36 4.94-6.14 4.94-9.84 0-1.74-1.07-4.25-2.59-6.05-2.25-2.68-3.24-3.08-7.54-3.08-3.91 0-5.47.51-7.37 2.41-4.66 4.66-4.11 11.39 1.27 15.62m-74.85 31.05c7.45 7.44 20.21-.27 16.95-10.24-1.54-4.7-4.37-6.84-9.05-6.84-7.27 0-10.74 3.16-10.79 9.83-.02 3.47.55 4.9 2.89 7.25m336.57 58.26c3.33 3.34 6.76 1.19 4.21-2.63-1.69-2.54-7.7-6.31-7.7-4.83 0 1.88 1.84 5.81 3.49 7.46"/><path fill="#edd5b3" d="M580.49 209.34c-1.65-1.65-3.49-5.58-3.49-7.46 0-1.2 3.92 1.03 6.32 3.26-.77-.68-1.62-1.14-2.34-1.14-2.42 0-2.66 3.13-.45 5.39-.01-.02-.03-.03-.04-.05m1.32 1.05c1.27.74 2.55.76 3.35.01-.64.74-1.92.85-3.35-.01m3.03-3.47c-.2-.32-.44-.64-.7-.93.22.24.41.48.56.72.05.07.1.14.14.21"/><path fill="#fefefd" d="M0 304V0h700v608H0zm368.14 253.54c39.05-5.19 77.42-21.9 116.69-50.8 11.66-8.58 43.64-37.17 54.07-48.34 12.96-13.88 23.64-31.72 29.13-48.66 5.57-17.18 7.48-33.68 5.96-51.43-3.03-35.26-15.76-67.67-41.37-105.31-9.85-14.48-24.71-32.53-47.67-57.93-18.43-20.38-30.04-35.32-28.59-36.76.33-.33 3.23-.03 6.46.65 4.64.99 7.1.99 11.77.03 17.84-3.69 30.06-16.63 33.97-35.97 1.48-7.31 1.55-9.58.5-16.42-3.56-23.23-18.05-42.98-39.61-53.94-3.87-1.97-9.95-4.27-13.5-5.11-7.98-1.88-25.51-1.95-32.95-.14-16.88 4.13-31.83 14.47-40.5 28.02-3.63 5.68-8.5 16.9-8.5 19.59 0 .93-1.41 3.63-3.14 6.01-5.23 7.22-8.93 16.39-10.73 26.55-1.46 8.29-2.03 9.81-4.16 10.98-4.25 2.35-5.58 1.68-9.95-5.04l-4.22-6.47 2.6-5.22c4.43-8.89 2.72-19.57-4.2-26.29-4.68-4.55-8.82-5.85-17.04-5.36-5.26.32-7.57 1.01-10.97 3.28-11.04 7.39-13.13 22.41-4.5 32.49 4.99 5.83 9.85 8.05 17.63 8.05h6.39l4.12 5.88 4.13 5.88-13.23 6.05c-10.15 4.64-13.5 5.78-14.4 4.87-.64-.65-8.59-13.09-17.66-27.66-16.06-25.79-16.45-26.55-15.08-29.2 1.8-3.48 1.8-9.94 0-14.25-3.31-7.94-15.2-11.16-23.65-6.42-4.96 2.79-8.4 10.16-7.43 15.91 1.38 8.16 6.56 12.68 16.49 14.37 3.88.66 2.32-1.49 24.01 33.03 6.21 9.87 11.47 18.65 11.69 19.5.29 1.12-2.63 2.96-10.78 6.77-6.15 2.87-11.54 5.01-11.96 4.74-.43-.26-2.84-3.6-5.36-7.42l-4.57-6.93 2.54-4.9c5.1-9.82 2.09-22.72-6.73-28.83-5.31-3.68-16.48-4.64-21.94-1.88-4.75 2.4-8.74 6.32-11.1 10.9-2.95 5.74-2.25 15.8 1.48 21.44 4.48 6.76 9.73 9.58 18.65 10.02l7.57.37 3.75 5.93c2.06 3.26 3.75 6.29 3.75 6.73s-3.24 2.3-7.19 4.12c-5.26 2.42-7.31 2.97-7.63 2.03-.23-.71-3.08-5.26-6.33-10.11-14.38-21.5-34.96-32.97-59.05-32.92-31.09.06-58.4 20.31-67.14 49.76-.87 2.91-2.44 6.51-3.49 8-3.81 5.4-8.35 15.58-10.24 22.99-2.36 9.23-2.54 24.04-.39 33.14 4.73 20.08 19.8 35.74 37.64 39.12 12.82 2.44 28.09-4.8 33.81-16.02 1.85-3.63 8.37-7.12 9.99-5.36 1.7 1.85 3.17 26.91 4.01 68.35 1 49.07 1.5 60.04 3.57 78.42 2.81 24.94 8.31 44.42 18.13 64.18 6.48 13.06 11.94 20.61 24.41 33.78 22.98 24.29 46.35 35.3 83.9 39.52 12.08 1.36 36.64 1.18 48.14-.36m-174.91-19.29c2.48-2.82 16.77-29.8 16.77-31.67 0-3.53-1.98-5.58-5.38-5.58-4 0-5.18 1.27-10.13 10.8-2.09 4.01-4.14 6.94-4.56 6.5-.43-.44-1.52-3.72-2.44-7.3-.91-3.58-2.37-7.29-3.23-8.25-2.88-3.21-7.98-2.15-17.76 3.69-6.83 4.08-9.08 5.01-9.34 3.87-.19-.82 2.69-9.59 6.4-19.47 6.72-17.92 6.74-17.99 5.11-21.41-1.49-3.12-2.03-3.43-5.9-3.43-2.38.01-10.02 1.94-17.27 4.38-7.15 2.41-13.38 4.15-13.85 3.88-.46-.27 7.08-8.46 16.75-18.19 14.86-14.94 17.6-18.16 17.6-20.66 0-4.76-2.4-6.96-11.73-10.72-4.82-1.94-11.47-4.74-14.77-6.23-7.63-3.43-6.48-3.94 11-4.94 15.48-.88 18.5-2.01 18.5-6.92 0-6.52.02-6.52-42.33-3.47-13.82.99-17.26 1.55-19.25 3.11-3.2 2.52-3.28 7.61-.17 10.5 1.24 1.14 11.2 5.93 22.14 10.64s20.14 8.82 20.45 9.13-9.65 10.79-22.14 23.29c-21.16 21.17-22.7 22.96-22.7 26.3 0 3.73 1.85 6.16 5.53 7.28 1.25.38 10.08-2.07 22.75-6.31 11.4-3.81 20.72-6.51 20.72-6 0 .97-8.66 24.94-12.03 33.31-1.08 2.69-1.97 6.38-1.97 8.21 0 3.99 3.21 7.41 6.94 7.41 1.41 0 8.41-3.34 15.56-7.41 8.55-4.87 13.21-7.01 13.61-6.25.34.64 1.62 5.28 2.84 10.32 1.24 5.07 3.1 10.09 4.18 11.25 2.43 2.6 7.94 2.79 10.1.34m362.46-310.29c4.47-1.56 7.6-6.45 8.12-12.66.42-5.07.27-5.45-3.57-9.29-3.51-3.52-4.57-4.01-8.6-4.01-3.82 0-4.88.43-6.26 2.54-2.17 3.32-.57 7.19 3.64 8.77 3.08 1.17 3.69 2.13 2 3.18-1.72 1.06-4.89-1.4-7.38-5.76-2.06-3.58-6.64-20.22-6.64-24.09 0-1.07 19.8-8.34 20.39-7.48.13.19 2.39 7.32 5.04 15.84 2.64 8.52 5.71 17.15 6.82 19.16 6.48 11.76 21.94 12.44 26.92 1.19 3.48-7.87.47-15.66-8.35-21.58-4.66-3.13-8.33-3.52-10.93-1.17-1.66 1.5-1.87 1.37-3.25-1.91-.81-1.94-2.64-7.37-4.07-12.06-3.95-12.95-6.56-13.88-23.96-8.52-22.17 6.83-23.45 9.04-18 30.89 3.08 12.37 6.06 18.7 10.59 22.52 6.12 5.15 11.51 6.52 17.49 4.44m8.51-121.48c6.57-4.38 25.88-24.43 29.71-30.87 3.87-6.5 4.6-12.66 1.97-16.67-.89-1.35-4.6-3.96-8.24-5.8-3.65-1.83-8.84-5.31-11.53-7.73-2.7-2.43-5.82-4.41-6.93-4.41-1.94 0-6.18 4.25-6.18 6.19 0 2.25 10.7 11.95 16.49 14.96l6.33 3.28-1.82 3.53c-2.5 4.86-18.94 22.15-24.66 25.94-5.56 3.68-7.69 3.87-9.78.88-1.85-2.64-2.06-8.88-.36-10.58 1.53-1.53 3.8-1.55 3.8-.03 0 2.21 3.31 4.83 6.1 4.83 3.01 0 5.9-3.09 5.9-6.32 0-3.35-3.2-8.73-6.09-10.22-1.54-.8-4.97-1.46-7.61-1.45-11.12.01-17.5 10.45-14.89 24.34.75 4.03 7.67 12.31 10.87 13 5.5 1.19 12.63-.02 16.92-2.87M346.5 528.37c-9.35-.79-29.97-4.51-38.5-6.95-17.6-5.05-29.69-12.41-45.87-27.94-25.49-24.47-39.31-55.1-44.66-98.98-.85-6.96-1.87-29.62-2.42-54-1.57-69.05-2.08-77.12-6.65-106-3.53-22.38-7.37-29.34-19.6-35.61-5.88-3.02-16.84-3.7-23.53-1.48-14.59 4.84-22.53 22.16-16.19 35.26 3.99 8.23 13.5 14.33 22.36 14.33 3.75 0 6.89-3.52 6.09-6.84-.85-3.53-3.17-5.16-7.34-5.16-2.65 0-4.31-.88-7.31-3.88-3.35-3.35-3.88-4.5-3.88-8.35 0-14.8 19.94-20.13 31-8.29 2.41 2.59 2.5 3.15 2.5 16.37 0 13.66-.01 13.71-3.5 20.61-3.05 6.03-4.21 7.32-9 9.98-4.93 2.74-6.39 3.06-14 3.06-7.3 0-9.31-.4-14.24-2.82-9.98-4.9-17.94-14.5-22.02-26.58-2.35-6.94-3.35-23.56-1.89-31.34 4.5-23.94 21.19-42.37 43.68-48.23 7.5-1.95 20.69-1.96 28.17-.03 21.23 5.49 37.56 22.67 45.7 48.08 3.8 11.89 4.64 22.12 3.68 44.92-.86 20.51.04 50.65 1.96 64.96 3.92 29.4 13.87 56.83 28.83 79.54 7.17 10.89 25.28 29.19 35.13 35.51 34.57 22.16 73.22 23.92 111.53 5.09 15.31-7.53 25.9-15.09 37.61-26.88 33.08-33.31 37.65-68.67 15.98-123.72-9.11-23.16-20.34-39.56-55.75-81.5-21.8-25.82-33.65-46.1-39.06-66.81-2.05-7.88-2.3-27.19-.45-34.69 5.07-20.53 19.62-35.39 39.6-40.48 8.65-2.2 23.29-1.98 31.57.49 12.86 3.83 26.83 15.17 34.24 27.78 6.78 11.56 8.89 27.17 5.22 38.71-2.77 8.71-11.65 17.67-19.87 20.03-13.59 3.9-24.97-2.7-30.24-17.56-1.45-4.11-3.47-9.72-4.48-12.47-4.7-12.82.69-24.51 11.3-24.49 5.16 0 10.02 1.72 13.43 4.73 4.3 3.8 5.67 6.82 4.92 10.85-.71 3.76-2.95 5.41-7.33 5.41-6.01 0-8.19 6.3-3.47 10.02 5.25 4.15 15.82.62 20.45-6.82 3.59-5.77 3.27-15.28-.72-21.74-11.76-19.03-39.62-19.21-49.63-.34-1.92 3.61-2.32 5.87-2.3 12.88.03 7.66.6 10.17 5.78 25.5 10.91 32.29 15.72 39.53 60.49 91.04 29.6 34.06 44.05 55.95 55.65 84.28 8.66 21.16 12.76 40.45 12.9 60.68.1 14.57-1.29 23.93-5.43 36.65-6.37 19.56-15.51 33.66-33.33 51.41-35.78 35.64-83.17 60.76-131.11 69.51-10.8 1.97-35.3 3.19-46 2.3m23.72-94.6c-.66-.8-4.07-7.03-7.58-13.86s-18.31-35.58-32.88-63.91c-47.32-91.96-52.99-103.11-52.62-103.46 1.13-1.11 38.05-18.68 38.43-18.3.51.51 7.08 11.96 27.38 47.76 7.34 12.92 20.62 36.33 29.53 52 40.48 71.22 49.76 88.16 48.82 89.1-1.5 1.5-19.97 7.86-27.24 9.38-11.36 2.36-22.45 2.97-23.84 1.29m-23.5-3.26c-12.71-3.5-27.6-12.57-40.05-24.41-10.56-10.04-18.13-20.38-25.46-34.78-14.1-27.68-19.95-55.03-20.28-94.76-.11-13.29.07-15.09 1.66-16.25.99-.72 2.27-1.31 2.85-1.31.59 0 3.88 5.51 7.32 12.25 3.43 6.74 11.58 22.6 18.11 35.25C319.29 361.62 355 431.29 355 431.63c0 .67-3.44.21-8.28-1.12m74.14-35.29c-6.4-11.4-19.04-33.77-28.09-49.72-9.04-15.95-27.38-48.27-40.73-71.82-13.36-23.56-24.34-43.53-24.41-44.38-.19-2.29 26.43-14.62 28.01-12.99.63.66 9.66 14.92 20.08 31.69 10.41 16.77 21.45 34.55 24.54 39.5 3.08 4.95 8.2 13.27 11.38 18.5 3.17 5.23 7.62 12.42 9.88 16 31.4 49.61 41.66 66.86 41.01 68.92-1.22 3.83-26.04 25.15-29.16 25.05-.48-.01-6.11-9.35-12.51-20.75m39.45-33.87c-4.44-7.07-13.23-21.18-19.53-31.35-6.31-10.17-20.16-32.45-30.78-49.5s-24.48-39.31-30.81-49.47c-6.32-10.16-11.68-19.2-11.91-20.07-.31-1.17 1.52-2.46 6.84-4.81 6.26-2.76 7.39-3 8.12-1.68 1.48 2.63 15.61 20.52 25.71 32.53 28.34 33.71 39.43 50.21 48.43 72.1 8.65 21.02 15.71 55.36 12.89 62.75-.81 2.14-1.63 1.17-8.96-10.5M261.43 245.89c-.35-.56-.31-4.55.07-8.87.78-8.86-.7-23.11-3.44-33.08l-1.8-6.55 16.62-7.66c25.14-11.57 43.82-20.15 62.62-28.73l27.3-12.47c5.66-2.59 10.84-4.49 11.5-4.23s2.28 3.34 3.6 6.84c3.33 8.85 8.65 19.3 13.33 26.19 2.17 3.2 3.76 6.01 3.53 6.24s-6.91 3.29-14.84 6.79c-25.67 11.34-57.75 26.51-88.14 41.69-17.41 8.7-29.98 14.43-30.35 13.84m-17.51-94.81c-2.34-2.35-2.91-3.78-2.89-7.25.05-6.67 3.52-9.83 10.79-9.83 4.68 0 7.51 2.14 9.05 6.84 3.26 9.97-9.5 17.68-16.95 10.24m74.85-31.05c-5.38-4.23-5.93-10.96-1.27-15.62 1.9-1.9 3.46-2.41 7.37-2.41 4.3 0 5.29.4 7.54 3.08 1.52 1.8 2.59 4.31 2.59 6.05 0 3.7-2.4 8.48-4.94 9.84-3.09 1.65-8.58 1.19-11.29-.94m261.8 89.4c-2.26-2.26-2.02-5.43.41-5.43 2.22 0 5.54 4.35 4.55 5.96-.94 1.51-3.15 1.28-4.96-.53"/></svg>